<svg width="12" height="13" viewBox="0 0 12 13" fill="none" xmlns="http://www.w3.org/2000/svg">
<path d="M9.2002 0.500098H9.7002C9.7002 0.223955 9.47634 9.76622e-05 9.2002 9.76622e-05V0.500098ZM10.0002 9.3001L10.4745 9.45821V9.45821L10.0002 9.3001ZM10.3857 8.1435L9.91139 7.98539V7.98539L10.3857 8.1435ZM3.6002 11.7001L3.24664 12.0537C3.4419 12.2489 3.75849 12.2489 3.95375 12.0537L3.6002 11.7001ZM8.0002 0.500098V1.0001H9.2002V0.500098V9.76622e-05H8.0002V0.500098ZM9.2002 0.500098H8.7002V5.3001H9.2002H9.7002V0.500098H9.2002ZM8.0002 5.3001V5.8001H10.4002V5.3001V4.8001H8.0002V5.3001ZM9.48954 6.9001V6.4001H8.8002V6.9001V7.4001H9.48954V6.9001ZM10.0002 9.3001L10.4745 9.45821L10.8601 8.30161L10.3857 8.1435L9.91139 7.98539L9.52585 9.14198L10.0002 9.3001ZM8.8002 9.3001V9.8001H10.0002V9.3001V8.8001H8.8002V9.3001ZM9.2002 11.7001L9.67454 11.8582L10.4745 9.45821L10.0002 9.3001L9.52585 9.14198L8.72585 11.542L9.2002 11.7001ZM7.6002 8.1001H7.1002C7.1002 9.03898 7.86131 9.8001 8.8002 9.8001V9.3001V8.8001C8.4136 8.8001 8.1002 8.4867 8.1002 8.1001H7.6002ZM8.8002 6.9001V6.4001C7.86131 6.4001 7.1002 7.16121 7.1002 8.1001H7.6002H8.1002C8.1002 7.7135 8.4136 7.4001 8.8002 7.4001V6.9001ZM9.48954 6.9001V7.4001C9.79305 7.4001 10.0074 7.69745 9.91139 7.98539L10.3857 8.1435L10.8601 8.30161C11.1719 7.36614 10.4756 6.4001 9.48954 6.4001V6.9001ZM3.6002 11.7001L3.95375 12.0537L6.35375 9.65365L6.0002 9.3001L5.64664 8.94654L3.24664 11.3465L3.6002 11.7001ZM3.6002 11.7001L3.95375 11.3465L1.55375 8.94654L1.2002 9.3001L0.846642 9.65365L3.24664 12.0537L3.6002 11.7001ZM3.6002 0.100098H3.1002V11.7001H3.6002H4.1002V0.100098H3.6002Z" fill="currentColor"/>
</svg>
