<svg width="12" height="13" viewBox="0 0 12 13" fill="none" xmlns="http://www.w3.org/2000/svg">
<path d="M2.79844 11.7001L2.44488 12.0537C2.53865 12.1474 2.66583 12.2001 2.79844 12.2001C2.93105 12.2001 3.05822 12.1474 3.15199 12.0537L2.79844 11.7001ZM7.59844 6.9001V6.4001H7.09844V6.9001H7.59844ZM7.59844 11.7001H7.09844V12.2001H7.59844V11.7001ZM2.79844 11.7001L3.15199 12.0537L5.55199 9.65365L5.19844 9.3001L4.84488 8.94654L2.44488 11.3465L2.79844 11.7001ZM2.79844 11.7001L3.15199 11.3465L0.751991 8.94654L0.398438 9.3001L0.0448841 9.65365L2.44488 12.0537L2.79844 11.7001ZM2.79844 0.100098H2.29844V11.7001H2.79844H3.29844V0.100098H2.79844ZM7.59844 6.9001V7.4001H9.59844V6.9001V6.4001H7.59844V6.9001ZM9.59844 9.3001V8.8001H7.59844V9.3001V9.8001H9.59844V9.3001ZM7.59844 9.3001H8.09844V6.9001H7.59844H7.09844V9.3001H7.59844ZM10.7984 8.1001H10.2984C10.2984 8.4867 9.98504 8.8001 9.59844 8.8001V9.3001V9.8001C10.5373 9.8001 11.2984 9.03898 11.2984 8.1001H10.7984ZM9.59844 6.9001V7.4001C9.98504 7.4001 10.2984 7.7135 10.2984 8.1001H10.7984H11.2984C11.2984 7.16121 10.5373 6.4001 9.59844 6.4001V6.9001ZM9.59844 11.7001V11.2001H7.59844V11.7001V12.2001H9.59844V11.7001ZM7.59844 11.7001H8.09844V9.3001H7.59844H7.09844V11.7001H7.59844ZM10.7984 10.5001H10.2984C10.2984 10.8867 9.98504 11.2001 9.59844 11.2001V11.7001V12.2001C10.5373 12.2001 11.2984 11.439 11.2984 10.5001H10.7984ZM9.59844 9.3001V9.8001C9.98504 9.8001 10.2984 10.1135 10.2984 10.5001H10.7984H11.2984C11.2984 9.56121 10.5373 8.8001 9.59844 8.8001V9.3001ZM7.59844 5.7001H8.09844V2.1001H7.59844H7.09844V5.7001H7.59844ZM10.7984 2.1001H10.2984V5.7001H10.7984H11.2984V2.1001H10.7984ZM9.19844 0.500098V1.0001C9.80595 1.0001 10.2984 1.49258 10.2984 2.1001H10.7984H11.2984C11.2984 0.9403 10.3582 9.76622e-05 9.19844 9.76622e-05V0.500098ZM7.59844 2.1001H8.09844C8.09844 1.49258 8.59092 1.0001 9.19844 1.0001V0.500098V9.76622e-05C8.03864 9.76622e-05 7.09844 0.9403 7.09844 2.1001H7.59844ZM7.59844 3.7001V4.2001H10.7984V3.7001V3.2001H7.59844V3.7001Z" fill="currentColor"/>
</svg>
