<svg width="12" height="13" viewBox="0 0 12 13" fill="none" xmlns="http://www.w3.org/2000/svg">
<path d="M9.19922 0.5H9.69922C9.69922 0.223858 9.47536 0 9.19922 0V0.5ZM3.59922 0.5L3.95277 0.146447C3.75751 -0.0488155 3.44093 -0.0488155 3.24567 0.146447L3.59922 0.5ZM7.99922 0.5V1H9.19922V0.5V0H7.99922V0.5ZM9.19922 0.5H8.69922V5.3H9.19922H9.69922V0.5H9.19922ZM7.99922 5.3V5.8H10.3992V5.3V4.8H7.99922V5.3ZM9.2616 6.9V6.4H8.79922V6.9V7.4H9.2616V6.9ZM9.99922 9.3L10.4736 9.45811L10.7873 8.51683L10.313 8.35871L9.83864 8.2006L9.52488 9.14189L9.99922 9.3ZM8.79922 9.3V9.8H9.99922V9.3V8.8H8.79922V9.3ZM9.19922 11.7L9.67356 11.8581L10.4736 9.45811L9.99922 9.3L9.52488 9.14189L8.72488 11.5419L9.19922 11.7ZM7.59922 8.1H7.09922C7.09922 9.03888 7.86034 9.8 8.79922 9.8V9.3V8.8C8.41262 8.8 8.09922 8.4866 8.09922 8.1H7.59922ZM8.79922 6.9V6.4C7.86034 6.4 7.09922 7.16112 7.09922 8.1H7.59922H8.09922C8.09922 7.7134 8.41262 7.4 8.79922 7.4V6.9ZM9.2616 6.9V7.4C9.67677 7.4 9.96993 7.80674 9.83864 8.2006L10.313 8.35871L10.7873 8.51683C11.1345 7.47543 10.3593 6.4 9.2616 6.4V6.9ZM3.59922 0.5L3.24567 0.146447L0.845665 2.54645L1.19922 2.9L1.55277 3.25355L3.95277 0.853553L3.59922 0.5ZM3.59922 0.5L3.24567 0.853553L5.64567 3.25355L5.99922 2.9L6.35277 2.54645L3.95277 0.146447L3.59922 0.5ZM3.59922 0.5H3.09922V12.1H3.59922H4.09922V0.5H3.59922Z" fill="currentColor"/>
</svg>
