<svg width="12" height="13" viewBox="0 0 12 13" fill="none" xmlns="http://www.w3.org/2000/svg">
<path d="M2.80039 0.5L3.15394 0.146447C3.06018 0.0526784 2.933 0 2.80039 0C2.66778 0 2.54061 0.0526784 2.44684 0.146447L2.80039 0.5ZM7.60039 6.9V6.4H7.10039V6.9H7.60039ZM7.60039 11.7H7.10039V12.2H7.60039V11.7ZM2.80039 0.5L2.44684 0.146447L0.0468372 2.54645L0.400391 2.9L0.753944 3.25355L3.15394 0.853553L2.80039 0.5ZM2.80039 0.5L2.44684 0.853553L4.84684 3.25355L5.20039 2.9L5.55394 2.54645L3.15394 0.146447L2.80039 0.5ZM2.80039 0.5H2.30039V12.1H2.80039H3.30039V0.5H2.80039ZM7.60039 6.9V7.4H9.60039V6.9V6.4H7.60039V6.9ZM9.60039 9.3V8.8H7.60039V9.3V9.8H9.60039V9.3ZM7.60039 9.3H8.10039V6.9H7.60039H7.10039V9.3H7.60039ZM10.8004 8.1H10.3004C10.3004 8.4866 9.98699 8.8 9.60039 8.8V9.3V9.8C10.5393 9.8 11.3004 9.03888 11.3004 8.1H10.8004ZM9.60039 6.9V7.4C9.98699 7.4 10.3004 7.7134 10.3004 8.1H10.8004H11.3004C11.3004 7.16112 10.5393 6.4 9.60039 6.4V6.9ZM9.60039 11.7V11.2H7.60039V11.7V12.2H9.60039V11.7ZM7.60039 11.7H8.10039V9.3H7.60039H7.10039V11.7H7.60039ZM10.8004 10.5H10.3004C10.3004 10.8866 9.98699 11.2 9.60039 11.2V11.7V12.2C10.5393 12.2 11.3004 11.4389 11.3004 10.5H10.8004ZM9.60039 9.3V9.8C9.98699 9.8 10.3004 10.1134 10.3004 10.5H10.8004H11.3004C11.3004 9.56112 10.5393 8.8 9.60039 8.8V9.3ZM7.60039 5.7H8.10039V2.1H7.60039H7.10039V5.7H7.60039ZM10.8004 2.1H10.3004V5.7H10.8004H11.3004V2.1H10.8004ZM9.20039 0.5V1C9.8079 1 10.3004 1.49249 10.3004 2.1H10.8004H11.3004C11.3004 0.940202 10.3602 0 9.20039 0V0.5ZM7.60039 2.1H8.10039C8.10039 1.49249 8.59288 1 9.20039 1V0.5V0C8.04059 0 7.10039 0.940202 7.10039 2.1H7.60039ZM7.60039 3.7V4.2H10.8004V3.7V3.2H7.60039V3.7Z" fill="currentColor"/>
</svg>
