<svg width="24" height="24" viewBox="0 0 24 24" fill="none" xmlns="http://www.w3.org/2000/svg">
<path d="M6.9488 13.0886L2.3507 11.3741C1.8831 11.2182 1.8831 10.5168 2.3507 10.3609L21.2886 3.03519C21.6782 2.87932 22.0679 3.26899 21.99 3.65866L18.5609 20.0247C18.483 20.4144 18.0154 20.5702 17.7036 20.3364L13.1055 16.9853C12.7938 16.7515 12.4041 16.7515 12.1703 16.9853L9.59854 19.0895M6.9488 13.0886L8.74126 18.8557C8.8192 19.2454 9.2868 19.3233 9.59854 19.0895M6.9488 13.0886L17.5477 6.69807C17.7036 6.62013 17.8595 6.85393 17.7036 6.93187L10.2999 13.868C10.0661 14.1018 9.83233 14.4135 9.83233 14.8032L9.59854 19.0895" stroke="currentColor"/>
</svg>
