<svg width="21" height="21" viewBox="0 0 21 21" fill="none" xmlns="http://www.w3.org/2000/svg">
<path fill-rule="evenodd" clip-rule="evenodd" d="M10.1527 0.0922298C10.3679 -0.0307433 10.6321 -0.0307433 10.8473 0.0922298L20.6473 5.69223C20.8654 5.81686 21 6.0488 21 6.3V7.30785C21 13.6532 16.7936 19.2299 10.6923 20.9731C10.5666 21.009 10.4334 21.009 10.3077 20.9731C4.20644 19.2299 0 13.6532 0 7.30785V6.3C0 6.0488 0.1346 5.81686 0.352703 5.69223L10.1527 0.0922298ZM9.90052 14.9949L15.9466 7.43729L14.8534 6.56271L9.69954 13.0051L6.04816 9.96224L5.1519 11.0378L9.90052 14.9949Z" fill="currentColor"/>
</svg>
