<svg width="24" height="24" viewBox="0 0 24 24" fill="none" xmlns="http://www.w3.org/2000/svg">
<path d="M19.9268 4.5625C17.9512 2.59375 15.3171 1.5 12.5366 1.5C6.7561 1.5 2.07317 6.16667 2.07317 11.9271C2.07317 13.75 2.58537 15.5729 3.46341 17.1042L2 22.5L7.56098 21.0417C9.09756 21.8438 10.7805 22.2813 12.5366 22.2813C18.3171 22.2813 23 17.6146 23 11.8542C22.9268 9.15625 21.9024 6.53125 19.9268 4.5625ZM17.5854 15.6458C17.3659 16.2292 16.3415 16.8125 15.8293 16.8854C15.3902 16.9583 14.8049 16.9583 14.2195 16.8125C13.8537 16.6667 13.3415 16.5208 12.7561 16.2292C10.122 15.1354 8.43903 12.5104 8.29268 12.2917C8.14634 12.1458 7.19512 10.9062 7.19512 9.59375C7.19512 8.28125 7.85366 7.69792 8.07317 7.40625C8.29268 7.11458 8.58536 7.11458 8.80488 7.11458C8.95122 7.11458 9.17073 7.11458 9.31707 7.11458C9.46341 7.11458 9.68293 7.04167 9.90244 7.55208C10.122 8.0625 10.6341 9.375 10.7073 9.44792C10.7805 9.59375 10.7805 9.73958 10.7073 9.88542C10.6341 10.0313 10.561 10.1771 10.4146 10.3229C10.2683 10.4687 10.1219 10.6875 10.0488 10.7604C9.90244 10.9062 9.7561 11.0521 9.90244 11.2708C10.0488 11.5625 10.561 12.3646 11.3659 13.0937C12.3902 13.9687 13.1951 14.2604 13.4878 14.4063C13.7805 14.5521 13.9268 14.4792 14.0732 14.3333C14.2195 14.1875 14.7317 13.6042 14.878 13.3125C15.0244 13.0208 15.2439 13.0938 15.4634 13.1667C15.6829 13.2396 17 13.8958 17.2195 14.0417C17.5122 14.1875 17.6585 14.2604 17.7317 14.3333C17.8049 14.5521 17.8049 15.0625 17.5854 15.6458Z" stroke="currentColor"/>
</svg>
