<svg width="93" height="30" viewBox="0 0 93 30" fill="none" xmlns="http://www.w3.org/2000/svg">
<g clip-path="url(#clip0_93_3259)">
<path d="M88.1895 11.0493H92.4312C91.8947 6.91137 88.8795 4.73633 84.6887 4.73633C80.4472 4.73633 77.6108 6.99099 77.6108 10.8637C77.6108 15.2668 81.2648 16.2482 83.2068 16.6462C85.7109 17.1501 88.164 17.2032 88.164 19.4312C88.164 20.9432 86.9374 21.6859 85.1999 21.6859C83.0535 21.6859 81.6227 20.5718 81.2648 18.556H77.0742C77.3297 22.9061 80.3706 25.2403 84.8423 25.2403C88.9817 25.2403 92.3801 23.2775 92.3801 19.0335C92.3801 14.471 88.4707 13.6488 85.7365 13.2244C83.8711 12.9327 81.8269 12.6674 81.8269 10.6249C81.8269 9.19256 82.8746 8.31727 84.6377 8.31727C86.682 8.31727 87.9084 9.51097 88.1895 11.0493Z" fill="#403F41"/>
<path d="M74.754 5.39941H70.7422V24.6301H74.754V5.39941Z" fill="#403F41"/>
<path d="M58.6265 17.9196H63.8648C63.047 19.9887 61.2072 20.9699 59.0864 20.9699C55.3558 20.9699 53.6182 17.9727 53.6182 15.0019C53.6182 12.0045 55.2535 8.95413 59.0609 8.95413C61.3862 8.95413 63.1236 10.0682 63.788 12.0576L68.1064 12.0576C67.3654 7.5749 63.5836 5.00195 59.112 5.00195C53.5927 5.00195 49.4531 8.90105 49.4531 15.0549C49.4531 21.2883 53.9503 24.9753 59.0864 24.9753C64.1458 24.9753 68.1064 21.5536 68.1064 16.1955V14.6305H58.6265V17.9196Z" fill="#403F41"/>
<path d="M40.2811 5.00195C35.6817 5.00195 32.2832 7.99922 32.3087 12.986H36.4483C36.3971 10.8109 37.7258 8.82154 40.0767 8.82154C42.1209 8.82154 43.3219 10.307 43.3219 12.0045C43.3219 13.7021 42.1209 14.6571 39.8978 15.6916C36.857 17.0974 34.6852 17.9992 32.462 18.795V24.6305H47.9469V20.7047H37.3164C37.3164 20.7047 37.3518 20.6933 37.3692 20.6878C39.1773 20.1191 40.5357 19.5012 42.1465 18.7685C45.596 17.177 47.5636 15.1875 47.5636 11.7924C47.5636 7.62785 44.5995 5.00195 40.2811 5.00195Z" fill="#403F41"/>
<path d="M21.419 17.8662C16.2063 17.8927 15.363 21.1553 15.082 23.9139L14.9543 25.134H13.9065L13.7788 23.9139C13.4978 21.1553 12.629 17.8927 7.59509 17.8662C6.75188 16.0624 6.39414 14.6035 6.39414 12.959C6.39414 8.84764 9.63933 5.00138 14.4431 5.00138C19.247 5.00138 22.4411 8.82097 22.4411 12.9856C22.4411 14.6035 22.2878 16.0624 21.419 17.8662ZM14.3921 0.0146484C6.47087 0.0146484 -0.0195312 6.7521 -0.0195312 15.0013C-0.0195312 23.2773 6.47087 30.0146 14.3921 30.0146C22.3899 30.0146 28.8548 23.2773 28.8548 15.0013C28.8548 6.75212 22.3899 0.0146484 14.3921 0.0146484Z" fill="#29B24A"/>
</g>
<defs>
<clipPath id="clip0_93_3259">
<rect width="92.449" height="30" fill="white"/>
</clipPath>
</defs>
</svg>
