<svg width="1973" height="399" viewBox="0 0 1973 399" fill="none" xmlns="http://www.w3.org/2000/svg">
<path d="M144.393 398.96C102.621 398.96 68.0861 384.813 40.8674 356.519C13.6094 328.265 0 293.359 0 251.88C0 210.401 13.6094 175.174 40.8674 147C68.0861 118.866 102.621 104.76 144.393 104.76C169.527 104.76 192.734 110.771 214.013 122.754C235.292 134.737 251.891 150.968 263.809 171.447L216.609 199.34C209.726 186.676 199.932 176.777 187.266 169.643C174.562 162.51 160.284 158.943 144.432 158.943C117.45 158.943 95.6982 167.559 79.1781 184.792C62.6581 202.025 54.3981 224.387 54.3981 251.88C54.3981 279.372 62.6581 301.334 79.1781 318.567C95.6982 335.8 117.45 344.416 144.432 344.416C160.284 344.416 174.64 340.849 187.463 333.716C200.286 326.582 210.001 316.803 216.609 304.42L263.809 332.313C251.93 352.792 235.371 369.023 214.249 381.006C193.088 392.988 169.842 399 144.432 399L144.393 398.96Z" fill="white"/>
<path d="M457.294 110.41H511.653V393.309H457.294V276.126H354.162V393.309H299.41V110.41H354.162V222.744H457.294V110.41Z" fill="white"/>
<path d="M602.031 339.968H719.048V393.309H547.318V110.41H717.081V163.752H602.07V223.947H707.169V276.487H602.07V339.928L602.031 339.968Z" fill="white"/>
<path d="M863.766 398.96C836.272 398.96 813.144 392.708 794.343 380.164C775.581 367.62 762.325 350.588 754.694 329.027L801.501 301.134C812.357 329.988 833.637 344.376 865.379 344.376C880.719 344.376 891.968 341.53 899.087 335.88C906.246 330.229 909.786 323.095 909.786 314.479C909.786 304.5 905.42 296.765 896.688 291.235C887.956 285.704 872.341 279.733 849.881 273.24C837.452 269.473 826.95 265.706 818.336 261.939C809.761 258.172 801.147 253.122 792.573 246.79C783.958 240.458 777.429 232.443 772.945 222.744C768.461 213.046 766.219 201.744 766.219 188.8C766.219 163.191 775.148 142.792 793.005 127.563C810.863 112.334 832.339 104.719 857.473 104.719C879.932 104.719 899.717 110.33 916.787 121.471C933.858 132.653 947.114 148.202 956.632 168.16L910.612 195.252C899.52 171.006 881.781 158.863 857.473 158.863C846.105 158.863 837.177 161.508 830.687 166.758C824.197 172.008 820.971 178.821 820.971 187.156C820.971 196.053 824.59 203.267 831.867 208.758C839.143 214.288 853.067 220.259 873.717 226.752C882.174 229.437 888.585 231.521 892.951 233.004C897.317 234.487 903.257 236.771 910.809 239.857C918.361 242.943 924.143 245.868 928.273 248.553C932.363 251.238 937.044 254.885 942.354 259.454C947.625 264.023 951.676 268.752 954.469 273.601C957.262 278.45 959.622 284.301 961.588 291.195C963.555 298.048 964.578 305.542 964.578 313.637C964.578 339.767 955.255 360.527 936.611 375.876C917.967 391.225 893.699 398.92 863.845 398.92L863.766 398.96Z" fill="white"/>
<path d="M1204.47 110.41V163.752H1129.5V393.309H1074.75V163.752H1000.17V110.41H1204.47Z" fill="white"/>
<path d="M1706.48 393.309L1650.55 295.122H1608.9V393.309H1554.15V110.41H1665.18C1690.83 110.41 1712.66 119.588 1730.64 137.903C1748.61 156.218 1757.62 178.3 1757.62 204.189C1757.62 221.702 1752.74 237.933 1742.95 252.882C1733.15 267.83 1720.21 279.092 1704.08 286.626L1765.56 393.309H1706.44H1706.48ZM1608.94 246.189H1665.26C1675.57 246.189 1684.42 242.101 1691.85 233.846C1699.25 225.63 1702.94 215.731 1702.94 204.149C1702.94 192.567 1699.25 182.748 1691.85 174.653C1684.46 166.557 1675.61 162.51 1665.26 162.51H1608.94V246.189Z" fill="white"/>
<path d="M1855.98 339.968H1973V393.309H1801.27V110.41H1971.03V163.752H1856.02V223.947H1961.12V276.487H1856.02V339.928L1855.98 339.968Z" fill="white"/>
<path d="M1383 32.542C1407.11 0.160305 1440.66 0 1440.66 0C1440.66 0 1445.66 30.458 1421.7 59.7939C1396.14 91.1336 1367.03 86.0038 1367.03 86.0038C1367.03 86.0038 1361.56 61.3568 1383 32.5821V32.542Z" fill="white"/>
<path d="M1379.31 399C1340.64 399 1307.76 385.374 1280.7 358.162C1253.64 330.95 1240.11 297.447 1240.11 257.691C1240.11 217.935 1253.64 184.471 1280.7 157.22C1307.76 130.008 1340.64 116.382 1379.31 116.382C1417.97 116.382 1451.29 130.008 1478.15 157.22C1505.06 184.431 1518.47 217.935 1518.47 257.691C1518.47 297.447 1505.02 330.95 1478.15 358.162C1451.25 385.374 1418.33 399 1379.31 399ZM1320.78 318.407C1336.59 334.517 1356.1 342.573 1379.31 342.573C1402.52 342.573 1422.03 334.517 1437.84 318.407C1453.65 302.296 1461.56 282.057 1461.56 257.691C1461.56 233.325 1453.65 213.086 1437.84 196.975C1422.03 180.865 1402.52 172.809 1379.31 172.809C1356.1 172.809 1336.59 180.865 1320.78 196.975C1304.97 213.086 1297.06 233.325 1297.06 257.691C1297.06 282.057 1304.97 302.296 1320.78 318.407Z" fill="white"/>
</svg>
