<svg width="30" height="30" viewBox="0 0 30 30" fill="none" xmlns="http://www.w3.org/2000/svg">
<path fill-rule="evenodd" clip-rule="evenodd" d="M14.5039 0.131757C14.8113 -0.043919 15.1887 -0.043919 15.4961 0.131757L29.4961 8.13176C29.8077 8.3098 30 8.64114 30 9V10.4398C30 19.5046 23.9908 27.4712 15.2747 29.9615C15.0952 30.0128 14.9048 30.0128 14.7253 29.9615C6.00921 27.4712 0 19.5046 0 10.4398V9C0 8.64114 0.192286 8.3098 0.503861 8.13176L14.5039 0.131757ZM14.1436 21.4213L22.7809 10.6247L21.2192 9.37531L13.8565 18.5787L8.64023 14.2318L7.35986 15.7682L14.1436 21.4213Z" fill="white"/>
</svg>
