<svg width="30" height="30" viewBox="0 0 30 30" fill="none" xmlns="http://www.w3.org/2000/svg">
<path fill-rule="evenodd" clip-rule="evenodd" d="M9 0C7.34315 0 6 1.34315 6 3V4H5C2.23858 4 0 6.23858 0 9C0 11.7614 2.23858 14 5 14H6.51212C7.64106 17.1941 10.5218 19.5606 14 19.9451V28H8V30H22V28H16V19.9451C19.4782 19.5606 22.3589 17.1941 23.4879 14H25C27.7614 14 30 11.7614 30 9C30 6.23858 27.7614 4 25 4H24V3C24 1.34315 22.6569 0 21 0H9ZM24 6V11C24 11.338 23.9814 11.6717 23.9451 12H25C26.6569 12 28 10.6569 28 9C28 7.34315 26.6569 6 25 6H24ZM5 6H6V11C6 11.338 6.01863 11.6717 6.05493 12H5C3.34315 12 2 10.6569 2 9C2 7.34315 3.34315 6 5 6Z" fill="white"/>
</svg>
