<svg width="245" height="49" viewBox="0 0 245 49" fill="none" xmlns="http://www.w3.org/2000/svg">
<path d="M17.9162 48.5852C12.7332 48.5852 8.44811 46.8624 5.07082 43.4167C1.68865 39.976 0 35.7251 0 30.6738C0 25.6225 1.68865 21.3326 5.07082 17.9016C8.44811 14.4755 12.7332 12.7576 17.9162 12.7576C21.0349 12.7576 23.9143 13.4896 26.5547 14.9489C29.195 16.4082 31.2546 18.3848 32.7334 20.8787L26.8768 24.2755C26.0227 22.7333 24.8075 21.5278 23.236 20.6591C21.6596 19.7903 19.888 19.356 17.9211 19.356C14.5731 19.356 11.8742 20.4053 9.8244 22.5039C7.7746 24.6025 6.7497 27.3258 6.7497 30.6738C6.7497 34.0218 7.7746 36.6963 9.8244 38.7949C11.8742 40.8935 14.5731 41.9428 17.9211 41.9428C19.888 41.9428 21.6693 41.5085 23.2604 40.6397C24.8514 39.771 26.0569 38.5802 26.8768 37.0721L32.7334 40.4689C31.2595 42.9628 29.2048 44.9394 26.584 46.3987C23.9583 47.858 21.0739 48.59 17.9211 48.59L17.9162 48.5852Z" fill="white"/>
<path d="M56.7436 13.4458H63.4884V47.8971H56.7436V33.6266H43.9469V47.8971H37.1533V13.4458H43.9469V27.1258H56.7436V13.4458Z" fill="white"/>
<path d="M74.7009 41.4012H89.2203V47.8971H67.9121V13.4458H88.9763V19.9417H74.7057V27.2722H87.7464V33.6705H74.7057V41.3963L74.7009 41.4012Z" fill="white"/>
<path d="M107.173 48.5852C103.762 48.5852 100.892 47.8238 98.5592 46.2962C96.2312 44.7686 94.5865 42.6944 93.6396 40.0687L99.4474 36.6719C100.794 40.1859 103.435 41.9379 107.373 41.9379C109.277 41.9379 110.673 41.5914 111.556 40.9033C112.444 40.2151 112.883 39.3464 112.883 38.2971C112.883 37.0819 112.342 36.1399 111.258 35.4664C110.175 34.7929 108.237 34.0657 105.45 33.2751C103.908 32.8163 102.605 32.3576 101.536 31.8988C100.472 31.44 99.4035 30.8251 98.3396 30.054C97.2707 29.2829 96.4606 28.3068 95.9042 27.1257C95.3478 25.9446 95.0696 24.5683 95.0696 22.9919C95.0696 19.8733 96.1775 17.3891 98.3932 15.5346C100.609 13.68 103.274 12.7527 106.392 12.7527C109.179 12.7527 111.634 13.436 113.752 14.7927C115.87 16.1544 117.515 18.048 118.696 20.4785L112.986 23.7777C111.61 20.825 109.408 19.3462 106.392 19.3462C104.982 19.3462 103.874 19.6683 103.069 20.3077C102.263 20.947 101.863 21.7767 101.863 22.7918C101.863 23.8753 102.312 24.7538 103.215 25.4224C104.118 26.0959 105.846 26.8231 108.408 27.6137C109.457 27.9407 110.253 28.1945 110.795 28.3751C111.336 28.5557 112.073 28.8339 113.01 29.2097C113.947 29.5855 114.665 29.9417 115.177 30.2687C115.685 30.5957 116.266 31.0398 116.924 31.5962C117.578 32.1526 118.081 32.7285 118.428 33.319C118.774 33.9096 119.067 34.6221 119.311 35.4616C119.555 36.2961 119.682 37.2088 119.682 38.1946C119.682 41.3767 118.525 43.9048 116.212 45.774C113.899 47.6432 110.887 48.5803 107.183 48.5803L107.173 48.5852Z" fill="white"/>
<path d="M149.453 13.4458V19.9417H140.151V47.8971H133.357V19.9417H124.104V13.4458H149.448H149.453Z" fill="white"/>
<path d="M211.741 47.8971L204.801 35.9399H199.632V47.8971H192.839V13.4458H206.616C209.799 13.4458 212.507 14.5634 214.738 16.7938C216.968 19.0242 218.086 21.7133 218.086 24.8661C218.086 26.9989 217.48 28.9755 216.265 30.7959C215.05 32.6163 213.444 33.9877 211.443 34.9053L219.071 47.8971H211.736H211.741ZM199.637 19.7953V29.9809H206.626C207.905 29.9809 209.003 29.4831 209.925 28.4777C210.843 27.4772 211.302 26.2717 211.302 24.8612C211.302 23.4508 210.843 22.2551 209.925 21.2692C209.008 20.2834 207.91 19.7904 206.626 19.7904H199.637V19.7953Z" fill="white"/>
<path d="M230.291 41.4012H244.81V47.8971H223.502V13.4458H244.566V19.9417H230.296V27.2722H243.336V33.6705H230.296V41.3963L230.291 41.4012Z" fill="white"/>
<path d="M171.603 3.96295C174.595 0.0195219 178.758 0 178.758 0C178.758 0 179.377 3.70916 176.405 7.28167C173.233 11.0982 169.621 10.4735 169.621 10.4735C169.621 10.4735 168.943 7.47201 171.603 3.96783V3.96295Z" fill="#F08427"/>
<path d="M171.145 48.5902C166.348 48.5902 162.267 46.9309 158.91 43.617C155.552 40.3032 153.873 36.2231 153.873 31.3817C153.873 26.5402 155.552 22.465 158.91 19.1463C162.267 15.8325 166.348 14.1731 171.145 14.1731C175.943 14.1731 180.076 15.8325 183.41 19.1463C186.748 22.4601 188.412 26.5402 188.412 31.3817C188.412 36.2231 186.743 40.3032 183.41 43.617C180.071 46.9309 175.986 48.5902 171.145 48.5902ZM163.883 38.7756C165.845 40.7375 168.266 41.7185 171.145 41.7185C174.025 41.7185 176.445 40.7375 178.407 38.7756C180.369 36.8136 181.35 34.349 181.35 31.3817C181.35 28.4143 180.369 25.9497 178.407 23.9877C176.445 22.0258 174.025 21.0448 171.145 21.0448C168.266 21.0448 165.845 22.0258 163.883 23.9877C161.921 25.9497 160.94 28.4143 160.94 31.3817C160.94 34.349 161.921 36.8136 163.883 38.7756Z" fill="#F08427"/>
</svg>
