<svg width="289" height="58" viewBox="0 0 289 58" fill="none" xmlns="http://www.w3.org/2000/svg">
<path d="M21.1338 57.2753C15.0199 57.2753 9.96532 55.2444 5.98149 51.1824C1.99191 47.1263 0 42.115 0 36.1603C0 30.2055 1.99191 25.1482 5.98149 21.1035C9.96532 17.0646 15.0199 15.0394 21.1338 15.0394C24.8125 15.0394 28.2092 15.9024 31.3237 17.6227C34.4382 19.343 36.8676 21.6731 38.612 24.6131L31.7036 28.6175C30.6962 26.7994 29.2627 25.3783 27.4089 24.3542C25.5494 23.3301 23.4597 22.8181 21.1396 22.8181C17.1903 22.8181 14.0067 24.055 11.5888 26.529C9.17086 29.003 7.96189 32.2134 7.96189 36.1603C7.96189 40.1071 9.17086 43.26 11.5888 45.7339C14.0067 48.2079 17.1903 49.4449 21.1396 49.4449C23.4597 49.4449 25.561 48.9329 27.4377 47.9087C29.3145 46.8846 30.7365 45.4808 31.7036 43.703L38.612 47.7074C36.8734 50.6474 34.4497 52.9775 31.3582 54.6978C28.261 56.4181 24.8586 57.2811 21.1396 57.2811L21.1338 57.2753Z" fill="#111111"/>
<path d="M66.9308 15.8507H74.8869V56.4641H66.9308V39.6411H51.836V56.4641H43.8223V15.8507H51.836V31.9776H66.9308V15.8507Z" fill="#111111"/>
<path d="M88.1154 48.8063H105.242V56.4641H80.1074V15.8507H104.955V23.5085H88.1211V32.1502H103.504V39.6929H88.1211V48.8006L88.1154 48.8063Z" fill="#111111"/>
<path d="M126.424 57.2753C122.4 57.2753 119.015 56.3778 116.263 54.577C113.517 52.7762 111.577 50.331 110.46 47.2356L117.311 43.2312C118.9 47.3737 122.014 49.4392 126.66 49.4392C128.905 49.4392 130.552 49.0307 131.594 48.2194C132.642 47.4082 133.16 46.3841 133.16 45.1471C133.16 43.7145 132.521 42.6041 131.243 41.8101C129.965 41.0162 127.679 40.1589 124.392 39.2268C122.573 38.686 121.036 38.1452 119.775 37.6044C118.52 37.0636 117.259 36.3386 116.004 35.4296C114.743 34.5205 113.787 33.3699 113.131 31.9775C112.475 30.5852 112.147 28.9627 112.147 27.1044C112.147 23.4279 113.454 20.4994 116.067 18.3131C118.681 16.1268 121.824 15.0337 125.503 15.0337C128.79 15.0337 131.686 15.8392 134.184 17.4386C136.683 19.0438 138.623 21.2762 140.016 24.1414L133.281 28.0307C131.657 24.5499 129.061 22.8066 125.503 22.8066C123.839 22.8066 122.532 23.1863 121.582 23.94C120.633 24.6937 120.16 25.6718 120.16 26.8685C120.16 28.1457 120.69 29.1814 121.755 29.9696C122.82 30.7636 124.858 31.6208 127.881 32.5529C129.118 32.9384 130.057 33.2375 130.696 33.4504C131.335 33.6633 132.204 33.9912 133.309 34.4342C134.415 34.8773 135.261 35.2973 135.865 35.6827C136.464 36.0682 137.149 36.5918 137.926 37.2477C138.698 37.9036 139.291 38.5825 139.7 39.2786C140.108 39.9748 140.454 40.8148 140.742 41.8044C141.029 42.7882 141.179 43.8641 141.179 45.0263C141.179 48.7775 139.815 51.7578 137.086 53.9614C134.357 56.1649 130.805 57.2696 126.436 57.2696L126.424 57.2753Z" fill="#111111"/>
<path d="M176.29 15.8507V23.5085H165.318V56.4641H157.304V23.5085H146.389V15.8507H176.285H176.29Z" fill="#111111"/>
<path d="M249.766 56.4641L241.58 42.3682H235.483V56.4641H227.47V15.8507H243.722C247.475 15.8507 250.67 17.1682 253.301 19.7976C255.932 22.4269 257.251 25.597 257.251 29.3137C257.251 31.828 256.537 34.1581 255.103 36.3041C253.67 38.4502 251.776 40.0669 249.415 41.1485L258.413 56.4641H249.761H249.766ZM235.489 23.3359V35.3433H243.733C245.242 35.3433 246.537 34.7565 247.625 33.5713C248.707 32.3918 249.248 30.9707 249.248 29.308C249.248 27.6452 248.707 26.2356 247.625 25.0734C246.543 23.9113 245.247 23.3302 243.733 23.3302H235.489V23.3359Z" fill="#111111"/>
<path d="M271.648 48.8063H288.775V56.4641H263.64V15.8507H288.487V23.5085H271.653V32.1502H287.036V39.6929H271.653V48.8006L271.648 48.8063Z" fill="#111111"/>
<path d="M202.421 4.67178C205.95 0.0230137 210.861 0 210.861 0C210.861 0 211.592 4.3726 208.086 8.58411C204.344 13.0833 200.083 12.3468 200.083 12.3468C200.083 12.3468 199.283 8.80849 202.421 4.67753V4.67178Z" fill="#F08427"/>
<path d="M201.881 57.281C196.222 57.281 191.409 55.3249 187.448 51.4183C183.487 47.5117 181.507 42.7019 181.507 36.9945C181.507 31.2871 183.487 26.483 187.448 22.5706C191.409 18.664 196.222 16.7079 201.881 16.7079C207.54 16.7079 212.416 18.664 216.348 22.5706C220.286 26.4772 222.249 31.2871 222.249 36.9945C222.249 42.7019 220.28 47.5117 216.348 51.4183C212.41 55.3249 207.592 57.281 201.881 57.281ZM193.314 45.7109C195.629 48.0238 198.484 49.1802 201.881 49.1802C205.277 49.1802 208.133 48.0238 210.447 45.7109C212.761 43.398 213.919 40.4925 213.919 36.9945C213.919 33.4964 212.761 30.5909 210.447 28.278C208.133 25.9651 205.277 24.8087 201.881 24.8087C198.484 24.8087 195.629 25.9651 193.314 28.278C191 30.5909 189.843 33.4964 189.843 36.9945C189.843 40.4925 191 43.398 193.314 45.7109Z" fill="#F08427"/>
</svg>
