<svg width="50" height="61" viewBox="0 0 50 61" fill="none" xmlns="http://www.w3.org/2000/svg">
<rect width="50" height="60.2419" rx="9.90809" fill="#111111"/>
<path d="M25.336 15.278C27.5213 12.3993 30.5623 12.385 30.5623 12.385C30.5623 12.385 31.0151 15.0928 28.844 17.7008C26.5267 20.4869 23.8886 20.0309 23.8886 20.0309C23.8886 20.0309 23.393 17.8397 25.336 15.2816V15.278Z" fill="#F08427"/>
<path d="M25.0014 47.8566C21.497 47.8566 18.5166 46.6452 16.0639 44.2261C13.6111 41.8069 12.3848 38.8284 12.3848 35.294C12.3848 31.7597 13.6111 28.7847 16.0639 26.362C18.5166 23.9428 21.497 22.7314 25.0014 22.7314C28.5059 22.7314 31.5255 23.9428 33.9604 26.362C36.3989 28.7811 37.6145 31.7597 37.6145 35.294C37.6145 38.8284 36.3953 41.8069 33.9604 44.2261C31.5219 46.6452 28.538 47.8566 25.0014 47.8566ZM19.6967 40.6917C21.1298 42.124 22.8981 42.8401 25.0014 42.8401C27.1048 42.8401 28.8731 42.124 30.3062 40.6917C31.7394 39.2595 32.4559 37.4602 32.4559 35.294C32.4559 33.1278 31.7394 31.3286 30.3062 29.8963C28.8731 28.4641 27.1048 27.7479 25.0014 27.7479C22.8981 27.7479 21.1298 28.4641 19.6967 29.8963C18.2635 31.3286 17.5469 33.1278 17.5469 35.294C17.5469 37.4602 18.2635 39.2595 19.6967 40.6917Z" fill="#F08427"/>
</svg>
