<svg width="0" height="0" class="hidden">
  <symbol fill="none" xmlns="http://www.w3.org/2000/svg" viewBox="0 0 15 15" id="ic_arr_hor">
    <path d="M10 14L3 7.5L10 1" stroke="currentColor" stroke-linecap="square"></path>
  </symbol>
  <symbol fill="none" xmlns="http://www.w3.org/2000/svg" viewBox="0 0 24 24" id="ic_cart">
    <path d="M5.59981 8.80005L10.3998 0.800049M13.5998 0.800049L18.3998 8.80005M1.12492 8.80005H22.8747C23.0542 8.80005 23.1998 8.94561 23.1998 9.12516V9.82718C23.1998 14.4127 22.1322 18.9353 20.0814 23.0368C20.0314 23.1368 19.9291 23.2001 19.8173 23.2001H4.18236C4.07048 23.2001 3.9682 23.1368 3.91817 23.0368C1.86744 18.9353 0.799805 14.4127 0.799805 9.82718V9.12516C0.799805 8.94561 0.945363 8.80005 1.12492 8.80005Z" stroke="currentColor"></path>
  </symbol>
  <symbol fill="none" xmlns="http://www.w3.org/2000/svg" viewBox="0 0 9 6" id="ic_check">
    <path d="M0.707031 2.84036L3.10703 5.24036L7.64036 0.707031" stroke="currentColor" stroke-linecap="square"></path>
  </symbol>
  <symbol fill="none" xmlns="http://www.w3.org/2000/svg" viewBox="0 0 16 16" id="ic_close">
    <path d="M1.59961 1.59998L14.3996 14.4M1.59961 14.4L14.3996 1.59998" stroke="currentColor"></path>
  </symbol>
  <symbol fill="none" xmlns="http://www.w3.org/2000/svg" viewBox="0 0 12 13" id="ic_credit">
    <path d="M0 11.759H12M1.2 2.95896L6 0.55896L10.8 2.95896M0 4.55896H12M4.4 6.55896V9.75896M7.6 6.55896V9.75896M1.2 4.55896V11.759M10.8 4.55896V11.759" stroke="currentColor"></path>
  </symbol>
  <symbol fill="none" xmlns="http://www.w3.org/2000/svg" viewBox="0 0 12 12" id="ic_credit_fill">
    <path d="M6 0L10.9789 2.47969L10.6211 3.19242L6 0.890922L1.37889 3.19242L1.02111 2.47969L6 0Z" fill="currentColor"></path>
    <path fill-rule="evenodd" clip-rule="evenodd" d="M12 4.03135V4.82822H11.2V11.2031H12V12H0V11.2031H0.8V4.82822H0V4.03135H12ZM4 9.60941V6.42195H4.8V9.60941H4ZM7.2 6.42195V9.60941H8V6.42195H7.2Z" fill="currentColor"></path>
  </symbol>
  <symbol fill="none" xmlns="http://www.w3.org/2000/svg" viewBox="0 0 16 16" id="ic_delete">
    <path d="M1.59961 1.59998L14.3996 14.4M1.59961 14.4L14.3996 1.59998" stroke="currentColor"></path>
  </symbol>
  <symbol fill="none" xmlns="http://www.w3.org/2000/svg" viewBox="0 0 16 16" id="ic_minus">
    <path d="M1.06641 8H14.9331" stroke="currentColor"></path>
  </symbol>
  <symbol fill="none" xmlns="http://www.w3.org/2000/svg" viewBox="0 0 16 16" id="ic_plus">
    <path d="M7.99974 1.06665V14.9333M1.06641 7.99998H14.9331" stroke="currentColor"></path>
  </symbol>
  <symbol fill="none" xmlns="http://www.w3.org/2000/svg" viewBox="0 0 24 24" id="ic_search">
    <path d="M23.1998 23.2L16.7998 16.8M10.3998 20C5.09787 20 0.799805 15.702 0.799805 10.4C0.799805 5.09812 5.09787 0.800049 10.3998 0.800049C15.7017 0.800049 19.9998 5.09812 19.9998 10.4C19.9998 15.702 15.7017 20 10.3998 20Z" stroke="currentColor"></path>
  </symbol>
  <symbol fill="none" xmlns="http://www.w3.org/2000/svg" viewBox="0 0 12 13" id="ic_sort">
    <path d="M2.79844 11.6L5.19844 9.2M2.79844 11.6L0.398438 9.2M2.79844 11.6V0M7.19844 2.8H11.9984M7.19844 6H10.3984M7.19844 9.2H8.79844" stroke="currentColor" stroke-linejoin="round"></path>
  </symbol>
  <symbol fill="none" xmlns="http://www.w3.org/2000/svg" viewBox="0 0 12 13" id="ic_sort_alphabet">
    <path d="M2.79844 11.7001L2.44488 12.0537C2.53865 12.1474 2.66583 12.2001 2.79844 12.2001C2.93105 12.2001 3.05822 12.1474 3.15199 12.0537L2.79844 11.7001ZM7.59844 6.9001V6.4001H7.09844V6.9001H7.59844ZM7.59844 11.7001H7.09844V12.2001H7.59844V11.7001ZM2.79844 11.7001L3.15199 12.0537L5.55199 9.65365L5.19844 9.3001L4.84488 8.94654L2.44488 11.3465L2.79844 11.7001ZM2.79844 11.7001L3.15199 11.3465L0.751991 8.94654L0.398438 9.3001L0.0448841 9.65365L2.44488 12.0537L2.79844 11.7001ZM2.79844 0.100098H2.29844V11.7001H2.79844H3.29844V0.100098H2.79844ZM7.59844 6.9001V7.4001H9.59844V6.9001V6.4001H7.59844V6.9001ZM9.59844 9.3001V8.8001H7.59844V9.3001V9.8001H9.59844V9.3001ZM7.59844 9.3001H8.09844V6.9001H7.59844H7.09844V9.3001H7.59844ZM10.7984 8.1001H10.2984C10.2984 8.4867 9.98504 8.8001 9.59844 8.8001V9.3001V9.8001C10.5373 9.8001 11.2984 9.03898 11.2984 8.1001H10.7984ZM9.59844 6.9001V7.4001C9.98504 7.4001 10.2984 7.7135 10.2984 8.1001H10.7984H11.2984C11.2984 7.16121 10.5373 6.4001 9.59844 6.4001V6.9001ZM9.59844 11.7001V11.2001H7.59844V11.7001V12.2001H9.59844V11.7001ZM7.59844 11.7001H8.09844V9.3001H7.59844H7.09844V11.7001H7.59844ZM10.7984 10.5001H10.2984C10.2984 10.8867 9.98504 11.2001 9.59844 11.2001V11.7001V12.2001C10.5373 12.2001 11.2984 11.439 11.2984 10.5001H10.7984ZM9.59844 9.3001V9.8001C9.98504 9.8001 10.2984 10.1135 10.2984 10.5001H10.7984H11.2984C11.2984 9.56121 10.5373 8.8001 9.59844 8.8001V9.3001ZM7.59844 5.7001H8.09844V2.1001H7.59844H7.09844V5.7001H7.59844ZM10.7984 2.1001H10.2984V5.7001H10.7984H11.2984V2.1001H10.7984ZM9.19844 0.500098V1.0001C9.80595 1.0001 10.2984 1.49258 10.2984 2.1001H10.7984H11.2984C11.2984 0.9403 10.3582 9.76622e-05 9.19844 9.76622e-05V0.500098ZM7.59844 2.1001H8.09844C8.09844 1.49258 8.59092 1.0001 9.19844 1.0001V0.500098V9.76622e-05C8.03864 9.76622e-05 7.09844 0.9403 7.09844 2.1001H7.59844ZM7.59844 3.7001V4.2001H10.7984V3.7001V3.2001H7.59844V3.7001Z" fill="currentColor"></path>
  </symbol>
  <symbol fill="none" xmlns="http://www.w3.org/2000/svg" viewBox="0 0 12 13" id="ic_sort_number">
    <path d="M9.19922 0.5H9.69922C9.69922 0.223858 9.47536 0 9.19922 0V0.5ZM3.59922 0.5L3.95277 0.146447C3.75751 -0.0488155 3.44093 -0.0488155 3.24567 0.146447L3.59922 0.5ZM7.99922 0.5V1H9.19922V0.5V0H7.99922V0.5ZM9.19922 0.5H8.69922V5.3H9.19922H9.69922V0.5H9.19922ZM7.99922 5.3V5.8H10.3992V5.3V4.8H7.99922V5.3ZM9.2616 6.9V6.4H8.79922V6.9V7.4H9.2616V6.9ZM9.99922 9.3L10.4736 9.45811L10.7873 8.51683L10.313 8.35871L9.83864 8.2006L9.52488 9.14189L9.99922 9.3ZM8.79922 9.3V9.8H9.99922V9.3V8.8H8.79922V9.3ZM9.19922 11.7L9.67356 11.8581L10.4736 9.45811L9.99922 9.3L9.52488 9.14189L8.72488 11.5419L9.19922 11.7ZM7.59922 8.1H7.09922C7.09922 9.03888 7.86034 9.8 8.79922 9.8V9.3V8.8C8.41262 8.8 8.09922 8.4866 8.09922 8.1H7.59922ZM8.79922 6.9V6.4C7.86034 6.4 7.09922 7.16112 7.09922 8.1H7.59922H8.09922C8.09922 7.7134 8.41262 7.4 8.79922 7.4V6.9ZM9.2616 6.9V7.4C9.67677 7.4 9.96993 7.80674 9.83864 8.2006L10.313 8.35871L10.7873 8.51683C11.1345 7.47543 10.3593 6.4 9.2616 6.4V6.9ZM3.59922 0.5L3.24567 0.146447L0.845665 2.54645L1.19922 2.9L1.55277 3.25355L3.95277 0.853553L3.59922 0.5ZM3.59922 0.5L3.24567 0.853553L5.64567 3.25355L5.99922 2.9L6.35277 2.54645L3.95277 0.146447L3.59922 0.5ZM3.59922 0.5H3.09922V12.1H3.59922H4.09922V0.5H3.59922Z" fill="currentColor"></path>
  </symbol>
  <symbol fill="none" xmlns="http://www.w3.org/2000/svg" viewBox="0 0 16 16" id="ic_star">
    <path d="M15.9583 6.13748C15.8536 5.81349 15.5662 5.58339 15.2262 5.55275L10.6082 5.13342L8.78208 0.859266C8.64744 0.546026 8.34079 0.343262 8.00008 0.343262C7.65938 0.343262 7.35273 0.546026 7.21808 0.859999L5.39198 5.13342L0.773211 5.55275C0.433847 5.58412 0.147219 5.81349 0.0418692 6.13748C-0.0634802 6.46146 0.0338123 6.81682 0.290533 7.04082L3.78122 10.1022L2.7519 14.6364C2.67658 14.9697 2.80598 15.3143 3.0826 15.5143C3.23128 15.6217 3.40524 15.6764 3.58066 15.6764C3.73191 15.6764 3.88193 15.6356 4.01658 15.5551L8.00008 13.1743L11.9821 15.5551C12.2735 15.7304 12.6408 15.7144 12.9168 15.5143C13.1936 15.3137 13.3229 14.969 13.2475 14.6364L12.2182 10.1022L15.7089 7.04143C15.9656 6.81682 16.0636 6.46207 15.9583 6.13748Z" fill="currentColor"></path>
  </symbol>
  <symbol fill="none" xmlns="http://www.w3.org/2000/svg" viewBox="0 0 24 24" id="ic_tg">
    <path d="M6.9488 13.0886L2.3507 11.3741C1.8831 11.2182 1.8831 10.5168 2.3507 10.3609L21.2886 3.03519C21.6782 2.87932 22.0679 3.26899 21.99 3.65866L18.5609 20.0247C18.483 20.4144 18.0154 20.5702 17.7036 20.3364L13.1055 16.9853C12.7938 16.7515 12.4041 16.7515 12.1703 16.9853L9.59854 19.0895M6.9488 13.0886L8.74126 18.8557C8.8192 19.2454 9.2868 19.3233 9.59854 19.0895M6.9488 13.0886L17.5477 6.69807C17.7036 6.62013 17.8595 6.85393 17.7036 6.93187L10.2999 13.868C10.0661 14.1018 9.83233 14.4135 9.83233 14.8032L9.59854 19.0895" stroke="currentColor"></path>
  </symbol>
  <symbol fill="none" xmlns="http://www.w3.org/2000/svg" viewBox="0 0 16 16" id="ic_time">
    <path d="M7.99987 3.19987V7.99987L11.1999 11.1999M7.99987 15.4665C3.87614 15.4665 0.533203 12.1236 0.533203 7.99987C0.533203 3.87614 3.87614 0.533203 7.99987 0.533203C12.1236 0.533203 15.4665 3.87614 15.4665 7.99987C15.4665 12.1236 12.1236 15.4665 7.99987 15.4665Z" stroke="currentColor" stroke-linejoin="round"></path>
  </symbol>
  <symbol fill="none" xmlns="http://www.w3.org/2000/svg" viewBox="0 0 13 13" id="ic_trade_in">
    <path d="M0.5 6.09997C0.5 3.00718 3.00721 0.499976 6.1 0.499976C7.88477 0.499976 9.47453 1.33491 10.5 2.6355M11.7 6.09998C11.7 9.19277 9.19279 11.7 6.1 11.7C4.31523 11.7 2.72547 10.865 1.7 9.56445M4.1 9.29998H1.3V12.1M10.9 0.0999756V2.89998L8.1 2.89998" stroke="currentColor"></path>
  </symbol>
  <symbol fill="none" xmlns="http://www.w3.org/2000/svg" viewBox="0 0 25 24" id="ic_vk">
    <path d="M13.5271 19C5.66893 19 1.18677 13.7447 1 5H4.9363C5.06559 11.4184 7.96747 14.1371 10.266 14.6977V5H13.9726V10.5355C16.2424 10.2973 18.6268 7.77477 19.4314 5H23.1379C22.5202 8.41943 19.9343 10.9419 18.0954 11.9789C19.9343 12.8198 22.8795 15.02 24 19H19.9199C19.0436 16.3373 16.8601 14.2773 13.9726 13.997V19H13.5271Z" stroke="currentColor"></path>
  </symbol>
  <symbol fill="none" xmlns="http://www.w3.org/2000/svg" viewBox="0 0 21 21" id="ic_warranty">
    <path fill-rule="evenodd" clip-rule="evenodd" d="M10.1527 0.0922298C10.3679 -0.0307433 10.6321 -0.0307433 10.8473 0.0922298L20.6473 5.69223C20.8654 5.81686 21 6.0488 21 6.3V7.30785C21 13.6532 16.7936 19.2299 10.6923 20.9731C10.5666 21.009 10.4334 21.009 10.3077 20.9731C4.20644 19.2299 0 13.6532 0 7.30785V6.3C0 6.0488 0.1346 5.81686 0.352703 5.69223L10.1527 0.0922298ZM9.90052 14.9949L15.9466 7.43729L14.8534 6.56271L9.69954 13.0051L6.04816 9.96224L5.1519 11.0378L9.90052 14.9949Z" fill="currentColor"></path>
  </symbol>
  <symbol fill="none" xmlns="http://www.w3.org/2000/svg" viewBox="0 0 24 24" id="ic_whatsapp">
    <path d="M19.9268 4.5625C17.9512 2.59375 15.3171 1.5 12.5366 1.5C6.7561 1.5 2.07317 6.16667 2.07317 11.9271C2.07317 13.75 2.58537 15.5729 3.46341 17.1042L2 22.5L7.56098 21.0417C9.09756 21.8438 10.7805 22.2813 12.5366 22.2813C18.3171 22.2813 23 17.6146 23 11.8542C22.9268 9.15625 21.9024 6.53125 19.9268 4.5625ZM17.5854 15.6458C17.3659 16.2292 16.3415 16.8125 15.8293 16.8854C15.3902 16.9583 14.8049 16.9583 14.2195 16.8125C13.8537 16.6667 13.3415 16.5208 12.7561 16.2292C10.122 15.1354 8.43903 12.5104 8.29268 12.2917C8.14634 12.1458 7.19512 10.9062 7.19512 9.59375C7.19512 8.28125 7.85366 7.69792 8.07317 7.40625C8.29268 7.11458 8.58536 7.11458 8.80488 7.11458C8.95122 7.11458 9.17073 7.11458 9.31707 7.11458C9.46341 7.11458 9.68293 7.04167 9.90244 7.55208C10.122 8.0625 10.6341 9.375 10.7073 9.44792C10.7805 9.59375 10.7805 9.73958 10.7073 9.88542C10.6341 10.0313 10.561 10.1771 10.4146 10.3229C10.2683 10.4687 10.1219 10.6875 10.0488 10.7604C9.90244 10.9062 9.7561 11.0521 9.90244 11.2708C10.0488 11.5625 10.561 12.3646 11.3659 13.0937C12.3902 13.9687 13.1951 14.2604 13.4878 14.4063C13.7805 14.5521 13.9268 14.4792 14.0732 14.3333C14.2195 14.1875 14.7317 13.6042 14.878 13.3125C15.0244 13.0208 15.2439 13.0938 15.4634 13.1667C15.6829 13.2396 17 13.8958 17.2195 14.0417C17.5122 14.1875 17.6585 14.2604 17.7317 14.3333C17.8049 14.5521 17.8049 15.0625 17.5854 15.6458Z" stroke="currentColor"></path>
  </symbol>
</svg>