<svg width="172" height="30" viewBox="0 0 172 30" fill="none" xmlns="http://www.w3.org/2000/svg">
<g clip-path="url(#clip0_93_3285)">
<path d="M51.9967 18.6127C51.9967 20.8902 49.8824 22.5394 46.9067 22.5394H39.9375V8.40332H46.6718C49.5692 8.40332 51.6051 9.97401 51.6051 12.1729C51.6051 13.6651 50.8221 14.6075 49.6475 15.1573C50.9004 15.6284 51.9967 16.8849 51.9967 18.6127ZM42.9914 10.9949V14.0578H46.5935C47.6898 14.0578 48.3946 13.4295 48.3946 12.5656C48.3946 11.7018 47.6115 10.9949 46.5935 10.9949H42.9914ZM46.9067 19.9478C48.0814 19.9478 48.9428 19.241 48.9428 18.2201C48.9428 17.1991 48.1597 16.4923 46.9067 16.4923H42.9914V19.9478H46.9067Z" fill="black"/>
<path d="M63.5045 22.4609L58.6497 16.885H57.8666V22.4609H54.7344V8.40332H57.8666V13.8221H58.6497L63.3481 8.40332H67.0286L61.1555 15.1573L67.5764 22.4609H63.5045Z" fill="black"/>
<path d="M67.5781 15.4712C67.5781 11.2303 70.7109 8.16748 75.0956 8.16748C79.481 8.16748 82.6132 11.2303 82.6132 15.4712C82.6132 19.712 79.481 22.7748 75.0956 22.7748C70.7109 22.7748 67.5781 19.712 67.5781 15.4712ZM79.3246 15.4712C79.3246 12.801 77.6015 10.9947 75.0956 10.9947C72.5898 10.9947 70.8673 12.801 70.8673 15.4712C70.8673 18.1413 72.5898 19.9476 75.0956 19.9476C77.6015 19.9476 79.3246 18.1413 79.3246 15.4712Z" fill="black"/>
<path d="M94.5956 8.40332H97.7284V22.4609H94.5956V16.8064H88.3314V22.4609H85.1992V8.40332H88.3314V13.9792H94.5956V8.40332Z" fill="black"/>
<path d="M104.461 22.4609V11.2305H99.6055V8.40332H112.37V11.2305H107.514V22.4609H104.461Z" fill="black"/>
<path d="M125.837 14.6073V22.4607H123.566L122.94 20.2617C122.235 21.4397 120.747 22.7748 118.476 22.7748C115.657 22.7748 113.621 20.89 113.621 18.2984C113.621 15.7067 115.657 13.9005 119.807 13.9005H122.861C122.705 12.0942 121.765 10.8377 120.042 10.8377C118.633 10.8377 117.693 11.623 117.223 12.4869L114.404 12.0157C115.109 9.58111 117.537 8.16748 120.199 8.16748C123.644 8.16748 125.837 10.5235 125.837 14.6073ZM122.783 16.335H119.886C117.537 16.335 116.753 17.1204 116.753 18.1413C116.753 19.3193 117.693 20.1047 119.259 20.1047C121.295 20.1047 122.783 18.6125 122.783 16.335Z" fill="black"/>
<path d="M137.899 22.4609L133.044 16.885H132.261V22.4609H129.129V8.40332H132.261V13.8221H133.044L137.743 8.40332H141.423L135.55 15.1573L141.971 22.4609H137.899Z" fill="black"/>
<path d="M147.609 22.4609V11.2305H142.754V8.40332H155.518V11.2305H150.663V22.4609H147.609Z" fill="black"/>
<path d="M171.178 16.335H159.902C160.215 18.534 161.781 19.9476 164.13 19.9476C165.775 19.9476 167.028 19.2408 167.733 18.2199L170.63 18.691C169.612 21.3612 166.871 22.7748 163.895 22.7748C159.667 22.7748 156.613 19.712 156.613 15.4712C156.613 11.2303 159.667 8.16748 163.895 8.16748C168.124 8.16748 171.178 11.2303 171.178 15.3141C171.256 15.7067 171.178 16.0209 171.178 16.335ZM160.137 13.9005H167.889C167.341 12.1727 165.931 10.9162 163.974 10.9162C162.094 10.8377 160.607 12.0942 160.137 13.9005Z" fill="black"/>
<path d="M0 14.4C0 7.61175 0 4.21766 2.10272 2.10883C4.20544 0 7.58969 0 14.3583 0H15.5548C22.3234 0 25.7076 0 27.8103 2.10883C29.913 4.21766 29.913 7.61175 29.913 14.4V15.6C29.913 22.3883 29.913 25.7823 27.8103 27.8912C25.7076 30 22.3234 30 15.5548 30H14.3583C7.58969 30 4.20544 30 2.10272 27.8912C0 25.7823 0 22.3883 0 15.6V14.4Z" fill="#0077FF"/>
<path d="M15.9152 21.6125C9.09754 21.6125 5.2089 16.925 5.04688 9.125H8.46195C8.57412 14.85 11.0917 17.275 13.0859 17.775V9.125H16.3017V14.0625C18.271 13.85 20.3397 11.6 21.0377 9.125H24.2534C23.7175 12.175 21.474 14.425 19.8786 15.35C21.474 16.1 24.0292 18.0625 25.0014 21.6125H21.4615C20.7012 19.2375 18.8069 17.4 16.3017 17.15V21.6125H15.9152Z" fill="white"/>
</g>
<defs>
<clipPath id="clip0_93_3285">
<rect width="172" height="30" fill="white"/>
</clipPath>
</defs>
</svg>
