<svg width="105" height="30" viewBox="0 0 105 30" fill="none" xmlns="http://www.w3.org/2000/svg">
<path fill-rule="evenodd" clip-rule="evenodd" d="M12.7043 3.48414H10.6895C6.99578 3.48414 5.06494 5.33115 5.06494 8.07369C5.06494 11.18 6.40813 12.6213 9.16447 14.4823L11.4311 15.9935L4.86906 25.7322H0L5.89044 17.0289C2.50449 14.6222 0.601637 12.2854 0.601637 8.32555C0.601637 3.3582 4.07154 0 10.6616 0H17.2096V25.7322H12.7043V3.48414Z" fill="#E63F0C"/>
<path fill-rule="evenodd" clip-rule="evenodd" d="M49.3366 22.262H43.0823C44.3136 19.4495 44.6494 14.3702 44.6494 11.1519V10.5922H49.3506V22.262H49.3366ZM53.7719 7.12207H40.8437V8.71722C40.8437 13.2648 40.5499 19.1556 38.9828 22.262H37.5977V29.9998H41.6972V25.7461H51.6452V29.9998H55.7447V22.262H53.7719V7.12207Z" fill="#000003"/>
<path fill-rule="evenodd" clip-rule="evenodd" d="M31.2991 14.4821H25.3806V7.12207H20.9453V25.7461H25.3806V17.9663H31.2991V25.7461H35.7344V7.12207H31.2991V14.4821Z" fill="#000003"/>
<path fill-rule="evenodd" clip-rule="evenodd" d="M99.95 10.2293C101.671 10.2293 103.336 10.8169 104.231 11.3766V7.64064C103.294 7.12292 101.657 6.74512 99.4603 6.74512C93.7937 6.74512 90.8555 10.775 90.8555 16.4419C90.8555 22.6686 93.7237 26.1108 99.6562 26.1108C101.713 26.1108 103.154 25.747 104.245 24.9634V21.3673C103.126 22.1509 101.783 22.6266 99.922 22.6266C96.7599 22.6266 95.4447 20.1779 95.4447 16.33C95.4447 12.3001 97.0537 10.2293 99.95 10.2293Z" fill="#000003"/>
<path fill-rule="evenodd" clip-rule="evenodd" d="M90.2606 7.12207H85.7833L79.5291 15.7135V7.12207H75.0938V25.7461H79.5291V16.595L86.0911 25.7461H91.1141L83.9924 15.7135L90.2606 7.12207Z" fill="#000003"/>
<path fill-rule="evenodd" clip-rule="evenodd" d="M67.5993 14.7488H61.4151C61.527 11.7824 62.6044 10.2293 64.7311 10.2293C66.9278 10.2293 67.5993 12.0483 67.5993 14.371V14.7488ZM64.815 6.74512C59.4143 6.74512 56.8398 10.8589 56.8398 16.4839C56.8398 22.9625 60.0439 26.1108 65.7105 26.1108C68.5368 26.1108 70.6355 25.3692 71.9367 24.4876V20.8916C70.5516 21.8151 68.243 22.6266 66.0883 22.6266C62.8422 22.6266 61.611 21.1154 61.4291 17.9951H72.1186V15.6584C72.1186 9.19381 69.2504 6.74512 64.815 6.74512Z" fill="#000003"/>
</svg>
